<svg width="512" height="512" viewBox="0 0 512 512" fill="none" xmlns="http://www.w3.org/2000/svg">
<path d="M383.502 319.723C383.502 319.723 360.469 438 294.815 438C274.808 438 310.535 421.944 308.265 352.171L383.502 319.723Z" fill="#C4D6E3"/>
<path d="M307.34 377.474C333.232 372.934 355.088 364.864 373.582 354.692C380.476 335.021 383.502 319.638 383.502 319.638L308.265 352.086C308.517 361.585 308.181 369.992 307.34 377.474Z" fill="#A6C4DA"/>
<path d="M186.193 347H329.635V459.252H186.193V347Z" fill="#283A4A"/>
<path d="M290.281 347H329.635V459.252H290.281V347Z" fill="#30465C"/>
<path d="M369.223 511.725H146.604C132.114 511.725 120.367 499.978 120.367 485.488C120.367 470.998 132.114 459.251 146.604 459.251H369.223C383.713 459.251 395.46 470.998 395.46 485.488C395.46 499.978 383.713 511.725 369.223 511.725Z" fill="#3C6D91"/>
<path d="M369.223 459.252H329.869C344.359 459.252 356.106 470.998 356.106 485.489C356.106 499.979 344.36 511.726 329.869 511.726H369.223C383.713 511.726 395.46 499.98 395.46 485.489C395.46 470.998 383.713 459.252 369.223 459.252Z" fill="#345E80"/>
<path d="M280.727 412.965H235.1C233.808 412.965 232.528 412.71 231.335 412.216C230.141 411.721 229.057 410.997 228.143 410.083C227.229 409.169 226.505 408.085 226.01 406.891C225.516 405.698 225.261 404.418 225.261 403.126C225.261 401.834 225.516 400.555 226.01 399.361C226.505 398.168 227.229 397.083 228.143 396.17C229.057 395.256 230.141 394.531 231.335 394.037C232.528 393.543 233.808 393.288 235.1 393.288H280.727C282.019 393.288 283.298 393.543 284.492 394.037C285.685 394.531 286.77 395.256 287.683 396.17C288.597 397.083 289.321 398.168 289.816 399.361C290.31 400.555 290.565 401.834 290.565 403.126C290.565 404.418 290.31 405.698 289.816 406.891C289.321 408.085 288.597 409.169 287.683 410.083C286.77 410.997 285.685 411.721 284.492 412.216C283.298 412.71 282.019 412.965 280.727 412.965Z" fill="#30465C"/>
<path d="M117.608 121.332C172.418 106.032 171.745 34.0737 171.745 34.0737C171.745 34.0737 157.118 50.6343 133.496 50.6343C109.874 50.6343 102.981 76.694 102.981 76.694C102.309 58.8725 90.8761 43.5729 71.7096 43.5729C52.543 43.5729 38 16 38 16C38 107.545 75.7446 116.372 75.7446 116.372C53.3837 269.957 105.419 358.139 249 358.139C424.189 358.139 460 219.434 460 189.508C460 174.04 441.086 171.602 441.086 171.602C427.215 129.486 345.841 131.167 294.31 152.099C237.231 175.301 208.649 228.597 151.57 210.86C93.1458 192.618 117.608 121.332 117.608 121.332Z" fill="#718B9E"/>
<path d="M312.048 236.836C295.151 270.546 270.604 274.076 270.604 274.076L188.39 319.723C188.39 319.723 157.034 338.553 122.4 319.723C151.486 344.858 193.35 358.14 249 358.14C424.189 358.14 460 219.435 460 189.508C460 174.04 441.086 171.603 441.086 171.603C360.132 171.687 328.861 203.126 312.048 236.836Z" fill="#C4D6E3"/>
<path d="M441.282 176.447C439.584 205.099 424.728 265.33 404.354 294.873" stroke="#A6C4DA" stroke-width="8" stroke-linecap="round"/>
<path d="M399.897 179.631C398.199 208.282 376.339 305.059 355.965 334.602" stroke="#A6C4DA" stroke-width="8" stroke-linecap="round"/>
<path d="M352.781 197.458C351.084 226.109 331.134 317.793 310.76 347.335" stroke="#A6C4DA" stroke-width="8" stroke-linecap="round"/>
<path d="M307.576 252.851C305.878 281.502 285.928 324.796 265.554 354.339" stroke="#A6C4DA" stroke-width="8" stroke-linecap="round"/>
<path d="M270.604 274.076C270.604 274.076 277.666 346.371 238.24 392.186C198.814 438.001 161.658 438.001 151.15 438.001C140.642 438.001 163.087 419.507 178.555 379.156C194.022 338.805 188.39 319.723 188.39 319.723C188.39 319.723 193.266 262.223 270.604 274.076Z" fill="#718B9E"/>
<path d="M286.829 233.725C293.793 233.725 299.438 228.079 299.438 221.115C299.438 214.151 293.793 208.506 286.829 208.506C279.865 208.506 274.219 214.151 274.219 221.115C274.219 228.079 279.865 233.725 286.829 233.725Z" fill="#3D4850"/>
<path d="M151.57 210.776C93.1458 192.618 117.608 121.332 117.608 121.332C172.418 106.032 171.745 34.0737 171.745 34.0737C171.745 34.0737 157.118 50.6343 133.496 50.6343C109.959 50.6343 102.897 76.7781 102.897 76.7781C102.309 58.8725 90.8761 43.5729 71.7096 43.5729C52.6271 43.5729 38 16 38 16C38 98.8869 68.9355 113.934 74.8199 116.036L75.7446 116.372C75.7446 116.372 91.6327 213.214 171.493 214.306C165.273 214.138 158.631 212.961 151.57 210.776Z" fill="#3D4850"/>
</svg>
