<svg width="20" height="20" viewBox="0 0 20 20" fill="none" xmlns="http://www.w3.org/2000/svg">
<path d="M4.26126 3.4375C4.26126 3.0231 4.42588 2.62567 4.71891 2.33265C5.01193 2.03962 5.40936 1.875 5.82376 1.875H13.9488C14.3632 1.875 14.7606 2.03962 15.0536 2.33265C15.3466 2.62567 15.5113 3.0231 15.5113 3.4375V3.75C15.5113 3.83288 15.4783 3.91237 15.4197 3.97097C15.3611 4.02958 15.2816 4.0625 15.1988 4.0625C15.1159 4.0625 15.0364 4.02958 14.9778 3.97097C14.9192 3.91237 14.8863 3.83288 14.8863 3.75V3.4375C14.8863 3.18886 14.7875 2.9504 14.6117 2.77459C14.4359 2.59877 14.1974 2.5 13.9488 2.5H11.6159L11.0838 3.29844C11.0552 3.34122 11.0165 3.3763 10.9712 3.40056C10.9258 3.42482 10.8752 3.43751 10.8238 3.4375H8.94876C8.89733 3.43751 8.84668 3.42482 8.80133 3.40056C8.75597 3.3763 8.71731 3.34122 8.68876 3.29844L8.15657 2.5H5.82376C5.57512 2.5 5.33666 2.59877 5.16085 2.77459C4.98503 2.9504 4.88626 3.18886 4.88626 3.4375V6.09375C4.88626 6.17663 4.85334 6.25612 4.79473 6.31472C4.73613 6.37333 4.65664 6.40625 4.57376 6.40625C4.49088 6.40625 4.4114 6.37333 4.35279 6.31472C4.29419 6.25612 4.26126 6.17663 4.26126 6.09375V3.4375Z" fill="white"/>
<path fill-rule="evenodd" clip-rule="evenodd" d="M15.1988 12.6562C15.2816 12.6562 15.3611 12.6892 15.4197 12.7478C15.4783 12.8064 15.5113 12.8859 15.5113 12.9688V16.5625C15.5113 16.9769 15.3466 17.3743 15.0536 17.6674C14.7606 17.9604 14.3632 18.125 13.9488 18.125H5.82376C5.40936 18.125 5.01193 17.9604 4.71891 17.6674C4.42588 17.3743 4.26126 16.9769 4.26126 16.5625V14.0625C4.26126 13.9796 4.29419 13.9001 4.35279 13.8415C4.4114 13.7829 4.49088 13.75 4.57376 13.75C4.65664 13.75 4.73613 13.7829 4.79473 13.8415C4.85334 13.9001 4.88626 13.9796 4.88626 14.0625V15H14.8863V12.9688C14.8863 12.8859 14.9192 12.8064 14.9778 12.7478C15.0364 12.6892 15.1159 12.6562 15.1988 12.6562ZM8.63626 16.5625C8.63626 16.4796 8.66919 16.4001 8.72779 16.3415C8.7864 16.2829 8.86588 16.25 8.94876 16.25H10.8238C10.9066 16.25 10.9861 16.2829 11.0447 16.3415C11.1033 16.4001 11.1363 16.4796 11.1363 16.5625C11.1363 16.6454 11.1033 16.7249 11.0447 16.7835C10.9861 16.8421 10.9066 16.875 10.8238 16.875H8.94876C8.86588 16.875 8.7864 16.8421 8.72779 16.7835C8.66919 16.7249 8.63626 16.6454 8.63626 16.5625Z" fill="white"/>
<path fill-rule="evenodd" clip-rule="evenodd" d="M3.89001 8.87457L3.91063 8.84082L6.35501 11.2852L6.32063 11.3055L5.90626 11.7202L7.45313 13.2671C7.51172 13.3257 7.54463 13.4051 7.54463 13.488C7.54463 13.5709 7.51172 13.6503 7.45313 13.7089L6.56876 14.5933C6.51017 14.6518 6.43076 14.6847 6.34797 14.6847C6.26519 14.6847 6.18578 14.6518 6.12719 14.5933L4.58032 13.0464C4.49326 13.1335 4.38991 13.2026 4.27615 13.2497C4.1624 13.2968 4.04048 13.3211 3.91735 13.3211C3.79422 13.3211 3.6723 13.2968 3.55855 13.2497C3.44479 13.2026 3.34144 13.1335 3.25438 13.0464L2.15001 11.9411C1.97425 11.7653 1.87552 11.5269 1.87552 11.2783C1.87552 11.0297 1.97425 10.7913 2.15001 10.6155L3.89001 8.87457ZM3.03376 11.0574C3.00321 11.086 2.97873 11.1205 2.96178 11.1588C2.94483 11.1971 2.93574 11.2384 2.93506 11.2803C2.93438 11.3221 2.94212 11.3637 2.95782 11.4025C2.97353 11.4413 2.99687 11.4766 3.02647 11.5062C3.05607 11.5358 3.09132 11.5592 3.13012 11.5749C3.16893 11.5907 3.2105 11.5984 3.25237 11.5978C3.29424 11.5971 3.33555 11.5881 3.37385 11.5712C3.41215 11.5542 3.44665 11.5298 3.47532 11.4993L4.35938 10.6155C4.38842 10.5865 4.41145 10.552 4.42716 10.5141C4.44287 10.4761 4.45096 10.4355 4.45096 10.3944C4.45096 10.3534 4.44287 10.3127 4.42716 10.2748C4.41145 10.2368 4.38842 10.2024 4.35938 10.1733C4.33035 10.1443 4.29588 10.1213 4.25794 10.1055C4.22001 10.0898 4.17935 10.0817 4.13829 10.0817C4.09723 10.0817 4.05657 10.0898 4.01863 10.1055C3.9807 10.1213 3.94623 10.1443 3.91719 10.1733L3.03376 11.0574ZM3.69626 11.7202C3.63766 11.7788 3.60476 11.8583 3.60479 11.9412C3.60482 12.0241 3.63777 12.1036 3.69641 12.1622C3.75505 12.2208 3.83456 12.2537 3.91746 12.2537C4.00036 12.2537 4.07985 12.2207 4.13844 12.1621L5.02219 11.2783C5.07912 11.2194 5.11062 11.1404 5.1099 11.0585C5.10919 10.9766 5.07633 10.8982 5.01839 10.8403C4.96045 10.7823 4.88207 10.7494 4.80013 10.7487C4.71819 10.748 4.63926 10.7795 4.58032 10.8364L3.69626 11.7202Z" fill="white"/>
<path d="M9.60251 9.33687L6.90719 10.9541L4.24188 8.28875L5.85938 5.59375C5.8838 5.553 5.91719 5.51835 5.95701 5.49244C5.99684 5.46653 6.04204 5.45004 6.08919 5.44423C6.13634 5.43841 6.1842 5.44342 6.22912 5.45888C6.27405 5.47434 6.31486 5.49984 6.34844 5.53344L9.66251 8.84812C9.69606 8.88169 9.72153 8.92246 9.73698 8.96734C9.75242 9.01221 9.75745 9.06002 9.75166 9.10713C9.74588 9.15424 9.72944 9.19941 9.7036 9.23921C9.67776 9.27902 9.64318 9.31242 9.60251 9.33687ZM10.8238 4.6875C10.5751 4.6875 10.3367 4.78627 10.1608 4.96209C9.98503 5.1379 9.88626 5.37636 9.88626 5.625V8.125C9.88626 8.37364 9.98503 8.6121 10.1608 8.78791C10.3367 8.96373 10.5751 9.0625 10.8238 9.0625H11.4488V7.65625C11.4488 7.28329 11.5969 6.9256 11.8606 6.66188C12.1244 6.39816 12.482 6.25 12.855 6.25H16.1363V5.625C16.1363 5.37636 16.0375 5.1379 15.8617 4.96209C15.6859 4.78627 15.4474 4.6875 15.1988 4.6875H10.8238ZM13.7925 8.33188L13.9319 8.75H13.6531L13.7925 8.33188ZM15.8238 9.375H16.1363C16.2191 9.375 16.2986 9.34208 16.3572 9.28347C16.4158 9.22487 16.4488 9.14538 16.4488 9.0625V8.4375C16.4488 8.35462 16.4158 8.27513 16.3572 8.21653C16.2986 8.15792 16.2191 8.125 16.1363 8.125H15.8238V9.375Z" fill="white"/>
<path fill-rule="evenodd" clip-rule="evenodd" d="M12.855 6.5625C12.5649 6.5625 12.2867 6.67773 12.0816 6.88285C11.8765 7.08797 11.7613 7.36617 11.7613 7.65625V10C11.7613 10.2486 11.86 10.4871 12.0358 10.6629C12.2117 10.8387 12.4501 10.9375 12.6988 10.9375H13.3238C13.4066 10.9375 13.4861 10.9704 13.5447 11.029C13.6033 11.0876 13.6363 11.1671 13.6363 11.25V12.5C13.6363 12.5618 13.6546 12.6222 13.6889 12.6736C13.7233 12.725 13.7721 12.765 13.8292 12.7886C13.8863 12.8123 13.9491 12.8185 14.0097 12.8064C14.0703 12.7944 14.126 12.7646 14.1697 12.7209L15.8616 11.0291C15.9202 10.9705 15.9996 10.9375 16.0825 10.9375H17.0738C17.3224 10.9375 17.5609 10.8387 17.7367 10.6629C17.9125 10.4871 18.0113 10.2486 18.0113 10V7.5C18.0113 7.25136 17.9125 7.0129 17.7367 6.83709C17.5609 6.66127 17.3224 6.5625 17.0738 6.5625H12.855ZM13.6363 7.5C13.5706 7.49998 13.5067 7.52062 13.4535 7.55899C13.4002 7.59735 13.3604 7.6515 13.3397 7.71375L12.7147 9.58875C12.7017 9.6277 12.6966 9.66881 12.6995 9.70976C12.7024 9.7507 12.7134 9.79067 12.7317 9.82737C12.7501 9.86408 12.7755 9.89681 12.8065 9.9237C12.8376 9.95058 12.8736 9.97109 12.9125 9.98406C12.9515 9.99703 12.9926 10.0022 13.0335 9.99928C13.0745 9.99636 13.1144 9.9854 13.1511 9.96703C13.1878 9.94866 13.2206 9.92324 13.2475 9.89222C13.2743 9.8612 13.2949 9.8252 13.3078 9.78625L13.4447 9.375H14.1403L14.2772 9.78625C14.3034 9.8649 14.3598 9.92993 14.4339 9.96703C14.508 10.0041 14.5939 10.0103 14.6725 9.98406C14.7512 9.95787 14.8162 9.90151 14.8533 9.82737C14.8904 9.75324 14.8965 9.6674 14.8703 9.58875L14.2453 7.71375C14.2246 7.6515 14.1848 7.59735 14.1316 7.55899C14.0783 7.52062 14.0144 7.49998 13.9488 7.5H13.6363ZM15.1988 7.8125C15.1988 7.72962 15.2317 7.65013 15.2903 7.59153C15.3489 7.53292 15.4284 7.5 15.5113 7.5H16.1363C16.3849 7.5 16.6234 7.59877 16.7992 7.77459C16.975 7.9504 17.0738 8.18886 17.0738 8.4375V9.0625C17.0738 9.31114 16.975 9.5496 16.7992 9.72541C16.6234 9.90123 16.3849 10 16.1363 10H15.5113C15.4284 10 15.3489 9.96708 15.2903 9.90847C15.2317 9.84987 15.1988 9.77038 15.1988 9.6875V7.8125Z" fill="white"/>
</svg>
