<svg width="36" height="36" viewBox="0 0 36 36" fill="none" xmlns="http://www.w3.org/2000/svg">
<path d="M31.1496 4.2769C30.909 4.0062 28.5235 1.44141 18 1.44141C7.45312 1.44141 5.09498 4.00296 4.85487 4.27177C1.72399 7.62188 0 11.9831 0 16.5586C0 21.3666 1.87235 25.8867 5.27203 29.2865C8.67185 32.6862 13.192 34.5586 18 34.5586C22.808 34.5586 27.3281 32.6862 30.728 29.2865C34.1276 25.8867 36 21.3666 36 16.5586C36 11.9857 34.2776 7.62659 31.1496 4.2769ZM9.79826 4.32977C12.046 3.82746 14.9588 3.55078 18 3.55078C21.0412 3.55078 23.954 3.82746 26.2017 4.32977C28.627 4.87181 29.3617 5.45597 29.554 5.66016C29.3618 5.86434 28.627 6.4485 26.2017 6.99054C23.954 7.49285 21.0412 7.76953 18 7.76953C14.9588 7.76953 12.046 7.49285 9.79826 6.99054C7.3729 6.4485 6.6382 5.86434 6.4459 5.66016C6.6382 5.45597 7.3729 4.87181 9.79826 4.32977ZM7.52344 20.5664C7.52344 19.7897 8.15302 19.1602 8.92969 19.1602C9.70636 19.1602 10.3359 19.7897 10.3359 20.5664C10.3359 21.3431 9.70636 21.9727 8.92969 21.9727C8.15302 21.9727 7.52344 21.3431 7.52344 20.5664ZM25.8047 24.2629C24.8354 24.2629 24.0469 25.0515 24.0469 26.0208C24.0469 26.99 24.8354 27.7786 25.8047 27.7786V29.8879C24.4861 29.8879 23.3201 29.2241 22.6217 28.2136L22.5772 28.2581C21.1828 29.6525 19.3288 30.4205 17.3568 30.4205C15.3847 30.4205 13.5307 29.6525 12.1364 28.2581L9.89902 26.0208L12.1364 23.7834C13.5308 22.389 15.3847 21.621 17.3568 21.621C19.3288 21.621 21.1828 22.389 22.5772 23.7834L22.6217 23.8279C23.3201 22.8174 24.486 22.1536 25.8047 22.1536V24.2629ZM11.25 16.7695C11.25 15.9929 11.8796 15.3633 12.6562 15.3633C13.4329 15.3633 14.0625 15.9929 14.0625 16.7695C14.0625 17.5462 13.4329 18.1758 12.6562 18.1758C11.8796 18.1758 11.25 17.5462 11.25 16.7695ZM29.9445 12.7486C28.977 13.0808 28.0631 13.3945 26.1913 13.3945C24.3193 13.3945 23.4055 13.0807 22.4379 12.7486C21.4 12.3922 20.2236 11.9883 17.9996 11.9883C15.7758 11.9883 14.5995 12.3922 13.5615 12.7486C12.594 13.0808 11.6802 13.3945 9.80845 13.3945C7.93666 13.3945 7.02281 13.0808 6.05531 12.7486C5.21283 12.4593 4.27901 12.1387 2.76792 12.0282C3.27122 10.337 4.05717 8.73788 5.09878 7.29183C5.29727 7.47 7.8281 9.87891 18 9.87891C28.1484 9.87891 30.7026 7.47007 30.9011 7.29204C31.9426 8.73809 32.7286 10.3372 33.232 12.0283C31.7209 12.1388 30.787 12.4593 29.9445 12.7486Z" fill="white"/>
</svg>
