<svg width="36" height="36" viewBox="0 0 36 36" fill="none" xmlns="http://www.w3.org/2000/svg">
<path fill-rule="evenodd" clip-rule="evenodd" d="M3.27656 6.09775V27.7649C3.27656 27.9141 3.33583 28.0572 3.44131 28.1626C3.5468 28.2681 3.68988 28.3274 3.83906 28.3274C8.19682 28.3274 13.845 28.7093 17.6873 30.9118C17.7818 30.9746 17.893 31.0075 18.0065 31.0062C18.12 31.0049 18.2304 30.9694 18.3234 30.9044C22.1645 28.7091 27.8071 28.3274 32.1609 28.3274C32.3101 28.3274 32.4532 28.2681 32.5587 28.1626C32.6642 28.0572 32.7234 27.9141 32.7234 27.7649V6.09775H34.875V30.0602H20.5637C20.4145 30.0602 20.2714 30.1195 20.1659 30.225C20.0604 30.3305 20.0012 30.4736 20.0012 30.6227V31.2148C20.0002 31.4081 19.923 31.5932 19.7864 31.7299C19.6497 31.8666 19.4646 31.9438 19.2713 31.9448H16.7562C16.5629 31.9438 16.3778 31.8666 16.2411 31.7299C16.1045 31.5932 16.0273 31.4081 16.0263 31.2148V30.6227C16.0263 30.4735 15.9671 30.3304 15.8616 30.2249C15.7561 30.1194 15.613 30.0602 15.4638 30.0602H1.125V6.09775H3.27656ZM18.5625 5.96577V29.5121C22.3805 27.6503 27.3989 27.2394 31.5984 27.2047V4.05566C26.3764 4.08259 23.4937 4.63645 18.5625 5.96577ZM23.3194 22.8919C23.3189 23.0469 23.2571 23.1955 23.1475 23.3052C23.0378 23.4148 22.8893 23.4766 22.7342 23.477H20.9611C20.806 23.4766 20.6574 23.4148 20.5478 23.3052C20.4382 23.1955 20.3764 23.0469 20.3759 22.8919V21.1187C20.3764 20.9637 20.4382 20.8151 20.5478 20.7055C20.6575 20.5959 20.806 20.5341 20.9611 20.5336H22.7342C22.8893 20.5341 23.0378 20.5959 23.1475 20.7055C23.2571 20.8151 23.3189 20.9637 23.3194 21.1187V22.8919ZM20.3759 17.8877V16.1146C20.3764 15.9596 20.4382 15.811 20.5478 15.7014C20.6575 15.5918 20.806 15.53 20.9611 15.5295H22.7342C22.8892 15.53 23.0378 15.5918 23.1474 15.7014C23.2571 15.811 23.3188 15.9596 23.3193 16.1146V17.8877C23.3188 18.0427 23.2571 18.1913 23.1474 18.3009C23.0378 18.4105 22.8892 18.4723 22.7342 18.4727H20.9611C20.806 18.4723 20.6575 18.4105 20.5478 18.3009C20.4382 18.1913 20.3764 18.0427 20.3759 17.8877ZM23.3194 12.8835C23.3189 13.0386 23.2571 13.1871 23.1475 13.2968C23.0378 13.4064 22.8893 13.4682 22.7342 13.4687H20.9611C20.806 13.4682 20.6575 13.4064 20.5478 13.2968C20.4382 13.1871 20.3764 13.0386 20.3759 12.8835V11.1105C20.3764 10.9555 20.4382 10.8069 20.5478 10.6973C20.6575 10.5877 20.806 10.5259 20.9611 10.5254H22.7342C22.8893 10.5259 23.0378 10.5877 23.1475 10.6973C23.2571 10.8069 23.3189 10.9555 23.3194 11.1105V12.8835ZM29.586 23.4769H25.3132C25.164 23.4769 25.0209 23.4176 24.9155 23.3121C24.81 23.2066 24.7507 23.0636 24.7507 22.9144C24.7507 22.7652 24.81 22.6221 24.9155 22.5166C25.0209 22.4112 25.164 22.3519 25.3132 22.3519H29.586C29.7352 22.3519 29.8783 22.4112 29.9838 22.5166C30.0893 22.6221 30.1485 22.7652 30.1485 22.9144C30.1485 23.0636 30.0893 23.2066 29.9838 23.3121C29.8783 23.4176 29.7352 23.4769 29.586 23.4769ZM29.586 21.6585H25.3132C25.164 21.6585 25.0209 21.5992 24.9155 21.4937C24.81 21.3882 24.7507 21.2452 24.7507 21.096C24.7507 20.9468 24.81 20.8037 24.9155 20.6982C25.0209 20.5927 25.164 20.5335 25.3132 20.5335H29.586C29.7352 20.5335 29.8783 20.5927 29.9838 20.6982C30.0893 20.8037 30.1485 20.9468 30.1485 21.096C30.1485 21.2452 30.0893 21.3882 29.9838 21.4937C29.8783 21.5992 29.7352 21.6585 29.586 21.6585ZM29.586 18.4727H25.3132C25.164 18.4727 25.0209 18.4135 24.9155 18.308C24.81 18.2025 24.7507 18.0594 24.7507 17.9102C24.7507 17.7611 24.81 17.618 24.9155 17.5125C25.0209 17.407 25.164 17.3477 25.3132 17.3477H29.586C29.7352 17.3477 29.8783 17.407 29.9838 17.5125C30.0893 17.618 30.1485 17.7611 30.1485 17.9102C30.1485 18.0594 30.0893 18.2025 29.9838 18.308C29.8783 18.4135 29.7352 18.4727 29.586 18.4727ZM29.586 16.6544H25.3132C25.164 16.6544 25.0209 16.5951 24.9155 16.4896C24.81 16.3842 24.7507 16.2411 24.7507 16.0919C24.7507 15.9427 24.81 15.7996 24.9155 15.6942C25.0209 15.5887 25.164 15.5294 25.3132 15.5294H29.586C29.7352 15.5294 29.8783 15.5887 29.9838 15.6942C30.0893 15.7996 30.1485 15.9427 30.1485 16.0919C30.1485 16.2411 30.0893 16.3842 29.9838 16.4896C29.8783 16.5951 29.7352 16.6544 29.586 16.6544ZM29.586 13.4687H25.3132C25.164 13.4687 25.0209 13.4094 24.9155 13.3039C24.81 13.1984 24.7507 13.0554 24.7507 12.9062C24.7507 12.757 24.81 12.6139 24.9155 12.5084C25.0209 12.4029 25.164 12.3437 25.3132 12.3437H29.586C29.7352 12.3437 29.8783 12.4029 29.9838 12.5084C30.0893 12.6139 30.1485 12.757 30.1485 12.9062C30.1485 13.0554 30.0893 13.1984 29.9838 13.3039C29.8783 13.4094 29.7352 13.4687 29.586 13.4687ZM29.586 11.6503H25.3132C25.164 11.6503 25.0209 11.591 24.9155 11.4855C24.81 11.38 24.7507 11.2369 24.7507 11.0878C24.7507 10.9386 24.81 10.7955 24.9155 10.69C25.0209 10.5845 25.164 10.5253 25.3132 10.5253H29.586C29.7352 10.5253 29.8783 10.5845 29.9838 10.69C30.0893 10.7955 30.1485 10.9386 30.1485 11.0878C30.1485 11.2369 30.0893 11.38 29.9838 11.4855C29.8783 11.591 29.7352 11.6503 29.586 11.6503ZM4.40156 4.05566V27.2047C8.60027 27.2394 13.6195 27.6506 17.4375 29.511V5.96577C12.5063 4.63645 9.6236 4.08259 4.40156 4.05566ZM15.9197 19.5227C15.9213 19.6341 15.8927 19.7438 15.837 19.8403C15.7813 19.9368 15.7006 20.0164 15.6033 20.0707L11.2359 22.5923C11.1402 22.6493 11.0309 22.6794 10.9195 22.6794C10.8081 22.6794 10.6988 22.6493 10.6031 22.5923L6.2358 20.0707C6.13857 20.0164 6.05783 19.9368 6.00214 19.8403C5.94644 19.7438 5.91785 19.6341 5.9194 19.5227V14.4797C5.91785 14.3683 5.94644 14.2586 6.00214 14.1621C6.05783 14.0657 6.13857 13.986 6.2358 13.9317L10.6031 11.4102C10.6988 11.3531 10.8081 11.323 10.9195 11.323C11.0309 11.323 11.1403 11.3531 11.2359 11.4102L12.6946 12.2523L7.69444 15.1392V17.1287C7.69324 17.2153 7.71548 17.3006 7.7588 17.3757C7.80212 17.4507 7.86491 17.5126 7.94053 17.5549L8.93355 18.1282C8.95493 18.1406 8.97918 18.1471 9.00387 18.1471C9.02855 18.1471 9.0528 18.1406 9.07418 18.1282C9.09556 18.1159 9.11331 18.0981 9.12565 18.0767C9.13799 18.0554 9.14449 18.0311 9.14449 18.0064V15.9764L14.1446 13.0896L15.6033 13.9317C15.7006 13.986 15.7813 14.0657 15.837 14.1621C15.8927 14.2586 15.9213 14.3683 15.9197 14.4797V19.5227Z" fill="white"/>
</svg>
