<svg width="20" height="20" viewBox="0 0 20 20" fill="none" xmlns="http://www.w3.org/2000/svg">
<g clip-path="url(#clip0_169_427)">
<path fill-rule="evenodd" clip-rule="evenodd" d="M10 11.7687L14.4192 16.1878C14.6537 16.4223 14.9717 16.5541 15.3033 16.5541C15.635 16.5541 15.953 16.4223 16.1875 16.1878C16.422 15.9533 16.5538 15.6353 16.5538 15.3037C16.5538 14.972 16.422 14.654 16.1875 14.4195L11.7667 10.0003L16.1867 5.58117C16.3027 5.46506 16.3948 5.32723 16.4576 5.17554C16.5204 5.02386 16.5527 4.86129 16.5526 4.69712C16.5526 4.53296 16.5202 4.37041 16.4574 4.21875C16.3945 4.0671 16.3024 3.92931 16.1863 3.81325C16.0702 3.6972 15.9323 3.60515 15.7806 3.54236C15.629 3.47957 15.4664 3.44727 15.3022 3.44731C15.1381 3.44735 14.9755 3.47973 14.8238 3.54258C14.6722 3.60544 14.5344 3.69756 14.4183 3.81367L10 8.23284L5.58085 3.81367C5.4656 3.69423 5.32771 3.59894 5.17524 3.53335C5.02276 3.46777 4.85876 3.43321 4.69278 3.43169C4.52681 3.43017 4.3622 3.46172 4.20855 3.5245C4.0549 3.58728 3.91529 3.68003 3.79787 3.79734C3.68045 3.91465 3.58757 4.05417 3.52464 4.20776C3.46172 4.36135 3.43001 4.52594 3.43138 4.69191C3.43274 4.85788 3.46715 5.02192 3.53258 5.17446C3.59802 5.32699 3.69318 5.46497 3.81252 5.58034L8.23335 10.0003L3.81335 14.4203C3.69402 14.5357 3.59886 14.6737 3.53342 14.8262C3.46798 14.9787 3.43357 15.1428 3.43221 15.3088C3.43085 15.4747 3.46255 15.6393 3.52548 15.7929C3.5884 15.9465 3.68128 16.086 3.7987 16.2033C3.91612 16.3206 4.05573 16.4134 4.20938 16.4762C4.36303 16.5389 4.52764 16.5705 4.69362 16.569C4.85959 16.5675 5.0236 16.5329 5.17607 16.4673C5.32854 16.4017 5.46643 16.3064 5.58168 16.187L10 11.7687Z" fill="white"/>
</g>
<defs>
<clipPath id="clip0_169_427">
<rect width="20" height="20" fill="white"/>
</clipPath>
</defs>
</svg>
