<svg width="20" height="20" viewBox="0 0 20 20" fill="none" xmlns="http://www.w3.org/2000/svg">
<g opacity="0.8" clip-path="url(#clip0_162_178)">
<path d="M10 20C15.5229 20 20 15.5228 20 10C20 4.47715 15.5229 0 10 0C4.47718 0 3.05176e-05 4.47715 3.05176e-05 10C3.05176e-05 15.5228 4.47718 20 10 20Z" fill="#EBF5FF"/>
<path d="M9.7088 17.4175C13.9662 17.4175 17.4176 13.9662 17.4176 9.70877C17.4176 5.45134 13.9662 2 9.7088 2C5.45137 2 2.00003 5.45134 2.00003 9.70877C2.00003 13.9662 5.45137 17.4175 9.7088 17.4175Z" fill="#7FABD4"/>
<g clip-path="url(#clip1_162_178)">
<path d="M7.60566 5.79773C7.9189 5.86818 8.14957 5.97789 8.32399 6.10479C9.09062 5.89202 9.9789 5.80636 10.8181 5.8887C9.96643 4.92669 8.78375 4.80976 7.57164 5.23258C7.28001 5.3343 7.31844 5.73982 7.60566 5.79773ZM6.36182 11.0882C6.94375 10.5804 7.60689 10.4642 8.33283 10.743C9.00711 11.0102 10.1098 11.3259 11.1154 11.4879C11.0429 11.3739 11.0423 11.3731 11.0373 11.3646C10.7661 10.8931 10.1712 9.66965 10.5045 8.49412C10.701 7.80137 11.1809 7.24402 11.9309 6.83753C11.937 6.83409 11.9359 6.83471 12.0576 6.76811C11.1424 6.42184 10.1025 6.37173 9.14112 6.52641C8.27109 6.66559 7.81731 6.88507 7.39117 7.1667C5.31928 8.53438 4.72712 10.389 5.10899 11.9457L5.10913 11.9462C5.55674 13.7691 7.42817 14.9105 7.50762 14.9582C7.55223 14.985 7.60345 15 7.66083 15C7.7429 15 8.25817 14.9826 8.61583 14.5613C8.93194 14.189 9.02191 13.6348 8.88317 12.914C8.84802 12.7312 8.65072 12.6255 8.47736 12.7014C8.47251 12.7035 7.98651 12.913 7.39385 12.8907C6.68182 12.8639 6.12203 12.5211 5.7279 11.8711C5.82955 11.6944 6.04268 11.3667 6.36182 11.0882Z" fill="white"/>
<path d="M14.9962 10.8931C14.7386 9.21453 14.0037 7.83803 12.7097 7.0791C12.0272 7.45256 12.2626 7.32383 12.2116 7.35163C11.6047 7.68016 11.22 8.11833 11.0681 8.65394C10.7969 9.61058 11.3063 10.656 11.5419 11.067L11.8706 11.584C12.8498 11.6732 13.8658 11.6193 14.7241 11.2518C14.8262 11.2081 14.8989 11.1826 14.9538 11.0964C14.9923 11.0361 15.0074 10.9638 14.9962 10.8931ZM12.8155 9.35724C12.6465 9.35724 12.5201 9.22232 12.5201 9.06436C12.5201 8.90615 12.6467 8.77149 12.8155 8.77149C12.9772 8.77149 13.1084 8.90262 13.1084 9.06436C13.1084 9.22611 12.9772 9.35724 12.8155 9.35724Z" fill="white"/>
</g>
</g>
<defs>
<clipPath id="clip0_162_178">
<rect width="20" height="20" fill="white"/>
</clipPath>
<clipPath id="clip1_162_178">
<rect width="10" height="10" fill="white" transform="translate(5.00004 5)"/>
</clipPath>
</defs>
</svg>
