<svg width="25" height="24" viewBox="0 0 25 24" fill="none" xmlns="http://www.w3.org/2000/svg">
<path d="M4.10611 18.5592V19.6645C4.10611 21.2153 7.41025 22.4729 11.4837 22.4729C12.49 22.4729 13.4425 22.3965 14.3153 22.2595C16.9902 21.8328 18.8652 20.8344 18.8652 19.6645V18.5557C17.4972 19.8586 14.4789 20.5293 11.4837 20.5293C8.49244 20.5293 5.47411 19.8586 4.10611 18.5592Z" fill="white"/>
<path d="M6.67849 15.3235C6.48776 15.2714 6.29845 15.2142 6.11078 15.152V15.9828C6.11078 17.5337 9.41449 18.7913 13.4884 18.7913C14.4942 18.7913 15.4468 18.7149 16.3195 18.5774C18.9944 18.1511 20.8695 17.1527 20.8695 15.9828V14.874C19.5015 16.177 16.4836 16.8477 13.4884 16.8477C10.8589 16.8477 8.21012 16.3297 6.67849 15.3235Z" fill="white"/>
<path d="M14.1551 15.6551C13.2139 15.8035 12.2194 15.8799 11.2018 15.8799C11.0229 15.8799 10.8396 15.8759 10.6607 15.8724C11.5291 16.0095 12.486 16.0858 13.4884 16.0858C17.5618 16.0858 20.866 14.8282 20.866 13.277C20.866 12.6333 20.2978 12.0386 19.3452 11.5664V12.3091C19.3452 13.887 17.4056 15.1367 14.1551 15.6551Z" fill="white"/>
<path d="M11.2027 15.1165C12.209 15.1165 13.1615 15.0405 14.0343 14.9031C16.7092 14.4763 18.5842 13.4779 18.5842 12.308V11.1992C17.2162 12.5026 14.1979 13.1733 11.2027 13.1733C8.21143 13.1733 5.1931 12.5026 3.8251 11.2031V12.308C3.8251 13.8589 7.12925 15.1165 11.2027 15.1165Z" fill="white"/>
<path d="M11.2018 12.4083C14.917 12.4083 17.9925 11.3641 18.5065 10.004C17.9285 10.17 17.3405 10.2997 16.7463 10.3923C15.7691 10.5427 14.7816 10.6167 13.7929 10.6136C10.1502 10.6136 6.46116 9.61517 5.76778 7.70215C4.56342 8.20135 3.82422 8.86462 3.82422 9.60033C3.82422 11.1507 7.12793 12.4083 11.2018 12.4083Z" fill="white"/>
<path d="M13.7943 7.90868C10.803 7.90868 7.78509 7.23799 6.41666 5.9385V7.04337C6.41666 8.59421 9.7208 9.85181 13.7943 9.85181C14.8005 9.85181 15.7535 9.77588 16.6258 9.63843C19.3007 9.21166 21.1758 8.21326 21.1758 7.04337V5.93457C19.8078 7.23799 16.7899 7.90868 13.7943 7.90868Z" fill="white"/>
<path d="M13.7947 7.14596C17.8699 7.14596 21.1736 5.88819 21.1736 4.33665C21.1736 2.78511 17.8699 1.52734 13.7947 1.52734C9.71942 1.52734 6.41577 2.78511 6.41577 4.33665C6.41577 5.88819 9.71942 7.14596 13.7947 7.14596Z" fill="white"/>
<path d="M4.11746 16.9581C4.11746 18.5093 7.42161 19.7669 11.4951 19.7669C12.5659 19.7669 13.5874 19.6792 14.506 19.5226C14.17 19.5457 13.8314 19.5531 13.4884 19.5531C9.44502 19.5531 5.34844 18.3265 5.34844 15.9828V15.4072C4.57128 15.8493 4.1179 16.3864 4.1179 16.9581H4.11746Z" fill="white"/>
</svg>
