<svg width="50" height="50" viewBox="0 0 50 50" fill="none" xmlns="http://www.w3.org/2000/svg">
<g opacity="0.7">
<path d="M39.1829 28.857C37.2636 28.659 35.3241 28.853 33.4821 29.4274C32.3215 25.5391 30.7015 21.8031 28.6563 18.2985C28.1848 17.5317 27.7532 16.741 27.3633 15.9297C27.2063 15.6149 27.1573 15.257 27.2241 14.9116C27.2909 14.5661 27.4697 14.2523 27.7329 14.0188C28.3647 13.4686 28.8783 12.7959 29.2427 12.0415C29.6071 11.2871 29.8147 10.4667 29.853 9.62978C29.8912 8.79287 29.7594 7.95689 29.4653 7.1724C29.1713 6.38791 28.7212 5.67121 28.1422 5.06564C24.3626 0.977358 17.4063 3.80158 17.4547 9.32189C17.4496 10.6478 17.8717 11.9402 18.6586 13.0074C19.4455 14.0746 20.5553 14.8599 21.8235 15.2469C22.0525 15.3126 22.2637 15.4291 22.4415 15.5876C22.6194 15.7461 22.7593 15.9426 22.8508 16.1625C24.2938 19.1649 35.8977 39.9688 21.1891 40.9977C17.6774 41.3516 14.3938 38.6203 14.6368 35.0797C15.4251 35.3 17.1626 36.7508 17.9532 35.586C18.0832 35.396 18.1487 35.1693 18.14 34.9393C18.1313 34.7093 18.0488 34.4881 17.9047 34.3086C16.8212 32.9438 14.3157 29.0742 14.5087 22.5461C14.5105 22.3039 14.4294 22.0683 14.2789 21.8785C14.1284 21.6886 13.9175 21.556 13.6813 21.5025C13.445 21.4491 13.1975 21.478 12.98 21.5846C12.7624 21.6911 12.5878 21.8689 12.4852 22.0883C9.51491 28.1852 5.64538 46.2485 22.4501 46.875C27.0743 46.8906 31.4188 43.943 33.5141 39.3914C34.1172 37.9633 34.6212 36.1117 35.3688 35.0711C36.7657 32.8797 38.2196 31.4102 39.4641 30.9289C39.6858 30.8385 39.8711 30.6769 39.9909 30.4697C40.1107 30.2624 40.1582 30.0213 40.126 29.784C40.0938 29.5468 39.9837 29.327 39.813 29.1592C39.6423 28.9914 39.4206 28.8851 39.1829 28.857ZM23.6704 12.268C22.8983 12.2554 22.162 11.9398 21.6204 11.3894C21.0789 10.8389 20.7754 10.0976 20.7754 9.3254C20.7754 8.55319 21.0789 7.81191 21.6204 7.26143C22.162 6.71096 22.8983 6.39541 23.6704 6.38283C24.4425 6.39541 25.1787 6.71096 25.7203 7.26143C26.2619 7.81191 26.5654 8.55319 26.5654 9.3254C26.5654 10.0976 26.2619 10.8389 25.7203 11.3894C25.1787 11.9398 24.4425 12.2554 23.6704 12.268Z" fill="#173754"/>
</g>
</svg>
