<svg width="48" height="48" viewBox="0 0 48 48" fill="none" xmlns="http://www.w3.org/2000/svg">
<g opacity="0.8" clip-path="url(#clip0_203_1022)">
<path d="M46.5936 16.9688H45.1874V15.5625C45.1874 14.7852 44.5584 14.1562 43.7811 14.1562C43.0038 14.1562 42.3749 14.7852 42.3749 15.5625V16.9688H40.9686C40.1913 16.9688 39.5624 17.5977 39.5624 18.375C39.5624 19.1523 40.1913 19.7812 40.9686 19.7812H42.3749V21.1875C42.3749 21.9648 43.0038 22.5938 43.7811 22.5938C44.5584 22.5938 45.1874 21.9648 45.1874 21.1875V19.7812H46.5936C47.3709 19.7812 47.9999 19.1523 47.9999 18.375C47.9999 17.5977 47.3709 16.9688 46.5936 16.9688Z" fill="white"/>
<path d="M40.8749 11.3438C41.6515 11.3438 42.2811 10.7142 42.2811 9.9375C42.2811 9.16085 41.6515 8.53125 40.8749 8.53125C40.0982 8.53125 39.4686 9.16085 39.4686 9.9375C39.4686 10.7142 40.0982 11.3438 40.8749 11.3438Z" fill="white"/>
<path d="M35.2499 19.7812C36.0265 19.7812 36.6561 19.1517 36.6561 18.375C36.6561 17.5983 36.0265 16.9688 35.2499 16.9688C34.4732 16.9688 33.8436 17.5983 33.8436 18.375C33.8436 19.1517 34.4732 19.7812 35.2499 19.7812Z" fill="white"/>
<path d="M23.0058 34.2557C23.5551 33.7064 24.4451 33.7064 24.9943 34.2557L25.4064 34.6677V22.5938H22.5939V34.6677L23.0058 34.2557Z" fill="white"/>
<path d="M38.0625 22.5938H28.2188V38.0625C28.219 38.3406 28.1366 38.6126 27.9821 38.8439C27.8276 39.0751 27.6079 39.2553 27.3508 39.3616C27.0939 39.4681 26.8111 39.496 26.5383 39.4417C26.2655 39.3875 26.0149 39.2535 25.8183 39.0567L24 37.2385L22.1818 39.0567C21.9854 39.2539 21.7348 39.3881 21.4619 39.4424C21.1889 39.4967 20.906 39.4686 20.6491 39.3616C20.3921 39.2553 20.1724 39.0751 20.0179 38.8438C19.8634 38.6126 19.781 38.3406 19.7812 38.0625V22.5938H18.9928L8.53137 28.6338V46.5937C8.53137 47.371 9.16034 48 9.93762 48H38.0625C38.8397 48 39.4687 47.371 39.4687 46.5937V24.0001C39.4687 23.2228 38.8397 22.5938 38.0625 22.5938ZM34.7582 8.61946L31.9459 3.74824C31.7591 3.42539 31.4519 3.18981 31.0917 3.09321C30.7314 2.99811 30.3482 3.04841 30.0247 3.23327L25.6983 5.73113C25.7018 4.74995 25.4692 3.68599 24.9655 2.81412C24.2143 1.51222 23.0017 0.581195 21.5501 0.192509C20.1013 -0.193363 18.5838 0.00435427 17.2819 0.754162C15.4789 1.79647 14.4008 3.7369 14.4722 5.81879L14.4818 6.11541C14.4818 6.12638 14.4818 6.13604 14.4832 6.14701L14.6206 10.3007L11.1531 8.14003C11.1517 8.13862 11.149 8.13731 11.1475 8.1359L10.8949 7.97793C9.12612 6.87797 6.9096 6.83672 5.1038 7.87903C3.8019 8.63024 2.87088 9.8428 2.48219 11.2944C2.09351 12.746 2.29272 14.2621 3.04384 15.564C3.55712 16.4513 4.27965 17.1412 5.11046 17.6179L0.70367 20.1082C0.0309244 20.4967 -0.199418 21.3566 0.188892 22.0294L3.09466 26.901C3.48297 27.5735 4.34293 27.8041 5.01568 27.4158L34.2436 10.5405C34.9161 10.1523 35.1465 9.29221 34.7582 8.61946ZM9.32084 15.1869C7.97657 15.96 6.25411 15.5004 5.47992 14.1578C4.70405 12.8147 5.1668 11.0899 6.50986 10.3154C7.4121 9.79217 8.52312 9.81411 9.40615 10.3648L13.3813 12.8425L9.32084 15.1869ZM22.8108 6.44813C22.6173 7.17253 22.1521 7.779 21.5021 8.1539L17.4404 10.4989L17.2819 5.7226C17.2646 5.21264 17.3863 4.70756 17.634 4.26147C17.8817 3.81537 18.2461 3.44508 18.6882 3.19024C19.3364 2.81262 20.0944 2.71512 20.8223 2.90871C21.5474 3.10371 22.1544 3.56927 22.5293 4.22017C22.9056 4.87126 23.0058 5.72166 22.8108 6.44813Z" fill="white"/>
</g>
<defs>
<clipPath id="clip0_203_1022">
<rect width="48" height="48" fill="white"/>
</clipPath>
</defs>
</svg>
